<svg width="91" height="77" viewBox="0 0 91 77" fill="none" xmlns="http://www.w3.org/2000/svg">
<path d="M40.8655 10.8398L40.3889 15.4687C40.3538 15.8125 40.5178 16.125 40.7717 16.3515C41.0647 16.6172 41.6077 16.5273 41.7249 16.4804L46.1624 14.7148L50.5882 16.5937C50.7132 16.6445 51.1702 16.7773 51.5452 16.4844C51.8186 16.2734 51.9749 15.9531 51.9514 15.6094L51.5686 10.8477L54.6116 6.87496C54.8187 6.60152 54.8694 6.24215 54.7444 5.92184C54.6194 5.60153 54.3382 5.37106 53.9983 5.31246L49.3421 4.49996L46.928 0.476561C46.7523 0.179691 46.4359 0 46.0921 0H46.0882C45.7484 0 45.4319 0.17578 45.2523 0.46875L42.7523 4.54685L38.0023 5.84765C37.6663 5.9414 37.4046 6.19921 37.3148 6.53906C37.2249 6.875 37.3187 7.23437 37.5608 7.48047L40.8655 10.8398ZM43.6507 6.33592C43.971 6.23436 44.0882 6.11717 44.2288 5.90233L46.0882 2.87113C46.0882 2.87113 47.9671 5.96493 47.9788 5.99223C48.139 6.32817 48.4358 6.32426 48.5452 6.3477C48.553 6.3477 48.5608 6.35551 48.5726 6.35551L52.0765 6.96879C52.0765 6.96879 49.9163 9.80859 49.9046 9.83209C49.6936 10.0274 49.5647 10.3048 49.5882 10.6133L49.8733 14.1602C49.8733 14.1602 46.596 12.7813 46.5803 12.7735C46.3459 12.6642 46.0725 12.6485 45.8147 12.7501L42.51 14.0665L42.8694 10.5587C42.9045 10.2228 42.7522 9.92199 42.5139 9.71887L40.1389 7.30087L43.6507 6.33592Z" fill="white"/>
<path d="M54.1746 10.1141C53.9753 10.3993 53.9402 10.7664 54.0886 11.0868L55.3308 13.7743L54.0652 16.4188C53.9168 16.7273 53.9402 17.0906 54.1316 17.3797C54.3113 17.657 54.6199 17.825 54.9519 17.825C54.9637 17.825 58.0144 17.7195 58.0144 17.7195L60.2566 19.7859C60.7058 20.1141 61.1043 20.032 61.1941 20.0047C61.5222 19.9109 61.7801 19.6492 61.866 19.3172L62.659 16.3797L65.3348 14.6492C65.6238 14.4617 65.7918 14.1414 65.784 13.7976C65.7723 13.4539 65.5848 13.1414 65.2879 12.9734L62.6941 11.5007L62.1199 8.6023C62.0535 8.26636 61.8152 7.98903 61.4949 7.87575C61.1746 7.75856 60.8113 7.81715 60.5457 8.032L58.1707 9.93819L55.0496 9.69991C54.7097 9.66866 54.3699 9.82895 54.1746 10.1141ZM58.409 11.9149C58.4597 11.9188 58.7761 11.9461 59.0183 11.743C59.0418 11.7235 60.5105 10.5672 60.5105 10.5672C60.5105 10.5672 60.9207 12.4461 60.9246 12.4969C60.9637 12.7899 61.2176 12.8954 61.284 12.9422C61.3035 12.9579 62.9129 13.8836 62.9129 13.8836C62.9129 13.8836 61.3895 14.8758 61.3817 14.8836C61.1395 15.0047 60.9442 15.2157 60.866 15.4969L60.3934 17.2469C60.3934 17.2469 59.0575 16.0203 59.0457 16.0125C58.8582 15.8328 58.6082 15.7235 58.3426 15.7469L56.5301 15.8094C56.5301 15.8094 57.3113 14.1375 57.323 14.1102V14.1024C57.4168 13.8485 57.3973 13.5868 57.2918 13.3524L56.5652 11.7743L58.409 11.9149Z" fill="white"/>
<path d="M64.8591 17.6718C64.5974 17.8984 64.4763 18.25 64.5388 18.5898L64.9607 20.8515L63.5076 22.5976C63.2888 22.8632 63.2224 23.2187 63.3357 23.5429C63.449 23.8671 63.7185 24.1054 64.0544 24.1796L66.363 24.6796L67.6678 26.6718C67.8474 26.9453 68.1599 27.1132 68.4881 27.1132C68.4998 27.1132 69.0584 27.207 69.3435 26.6132L70.5076 24.539L72.867 23.7422C73.1913 23.6328 73.4373 23.3594 73.5077 23.0273C73.5819 22.6953 73.4764 22.3437 73.2303 22.1055L71.5623 20.5039L71.6795 18.2109C71.6951 17.8671 71.535 17.5429 71.2498 17.3515C70.9686 17.1601 70.6014 17.1288 70.2928 17.2734L68.1326 18.2616L65.8162 17.4804C65.4881 17.3749 65.1247 17.4453 64.8591 17.6718ZM67.8747 20.246C67.9255 20.2617 68.2458 20.3671 68.4958 20.2304C68.5271 20.2148 69.6403 19.7304 69.6403 19.7304C69.6403 19.7304 69.5895 20.8788 69.5856 20.8906C69.5622 21.1641 69.7106 21.3594 69.738 21.4101C69.777 21.4726 70.7067 22.4062 70.7067 22.4062C70.7067 22.4062 69.6208 22.7773 69.6129 22.7812C69.3551 22.8398 69.1207 23 68.9801 23.25L68.4176 24.25C68.4176 24.25 67.7887 23.293 67.7848 23.289C67.6481 23.0742 67.4332 22.9101 67.1637 22.8515L66.0426 22.6094C66.0426 22.6094 66.8121 21.6406 66.8238 21.625C67.027 21.375 66.984 21.0664 66.9606 20.9375L66.7652 19.8711L67.8747 20.246Z" fill="white"/>
<path d="M26.5862 14.7271L29.2659 16.4576L30.0589 19.3951C30.1487 19.7271 30.4026 19.985 30.7346 20.0787C30.8245 20.106 31.4846 20.0279 31.6721 19.86L33.9143 17.7936C33.9143 17.7936 36.9651 17.9029 36.9768 17.9029C37.305 17.9029 37.6175 17.735 37.7971 17.4576C37.9846 17.1725 38.0081 16.8092 37.8596 16.4967L36.594 13.8522L37.8362 11.1647C37.9847 10.8483 37.9495 10.4772 37.7503 10.1959C37.5511 9.91077 37.2191 9.75062 36.8714 9.77796L33.7464 10.0162L31.3753 8.11004C31.1097 7.89129 30.7503 7.8366 30.4261 7.95379C30.1058 8.07098 29.8675 8.34832 29.8011 8.68426L29.223 11.5866L26.6292 13.0593C26.3323 13.2311 26.1448 13.5436 26.1331 13.8835C26.1253 14.2194 26.2971 14.5396 26.5862 14.7271ZM30.5823 13.063C31.0159 12.8365 31.0588 12.4029 31.0588 12.4029L31.4104 10.6451C31.4104 10.6451 32.8049 11.7662 32.8127 11.7701L32.8283 11.7818C33.1447 12.0787 33.469 12.0005 33.5158 11.9966L35.3596 11.856L34.637 13.4185C34.5081 13.6802 34.4846 13.9849 34.6174 14.2662L35.3909 15.8873L33.5784 15.8248C33.3049 15.8013 33.051 15.9107 32.8674 16.0982C32.8596 16.106 32.8518 16.106 32.844 16.1138L31.5276 17.3286L31.0549 15.5786C30.9768 15.2974 30.7815 15.0864 30.5432 14.9692C30.5315 14.9614 29.008 13.9653 29.008 13.9653L30.5823 13.063Z" fill="white"/>
<path d="M19.0604 23.8249L21.4237 24.6296L22.5878 26.6999C22.7558 26.9968 23.0683 27.1882 23.4081 27.1999C23.4159 27.1999 24.0136 27.1999 24.2597 26.7546L25.5644 24.7624L27.873 24.2624C28.2089 24.1921 28.4824 23.9499 28.5917 23.6218C28.7011 23.2976 28.6386 22.9421 28.4198 22.6765L26.9667 20.9304L27.3886 18.6687C27.4511 18.3288 27.33 17.9773 27.0683 17.7507C26.8066 17.5241 26.4433 17.4538 26.1152 17.5632L23.7988 18.3444L21.6386 17.3562C21.3261 17.2155 20.9628 17.2429 20.6816 17.4343C20.4003 17.6257 20.2363 17.9538 20.2519 18.2976L20.3691 20.5867L18.7011 22.1883C18.455 22.4265 18.3495 22.7742 18.4198 23.1062C18.494 23.4461 18.7362 23.7155 19.0604 23.8249ZM23.3065 20.2741C23.3065 20.2741 23.5213 20.4304 23.9042 20.3444C23.955 20.3327 25.1542 19.9538 25.1542 19.9538L24.9589 21.0163V21.0241C24.9159 21.2624 24.9628 21.5085 25.0995 21.7233C25.1112 21.7272 25.8768 22.6882 25.8768 22.6882L24.7557 22.9304C24.4862 22.989 24.2713 23.153 24.1346 23.3718C24.1307 23.3796 24.1268 23.3796 24.1229 23.3874L23.5057 24.3327L22.9432 23.3327C22.8026 23.0827 22.5682 22.9265 22.3104 22.864C22.3026 22.8601 22.2987 22.8562 22.2909 22.8522L21.2206 22.489C21.2206 22.489 22.0565 21.6726 22.0682 21.6647C22.3846 21.4499 22.3456 21.0397 22.3417 20.9733C22.3417 20.9616 22.287 19.8092 22.287 19.8092C22.2909 19.8092 23.3065 20.2741 23.3065 20.2741Z" fill="white"/>
<path d="M88.2099 53.5551H72.3119C72.1635 51.6215 71.5268 47.0863 68.851 42.3321C75.0424 35.2696 85.515 22.3091 85.695 15.2851L85.7497 13.0898L84.0778 14.5117C83.3981 15.0899 70.5938 26.0277 62.5078 34.9027C58.4726 31.7074 53.3594 29.6371 47.1988 28.7386C47.5035 28.3793 48.0699 27.8715 48.6324 27.4769C48.8551 27.3207 49.0035 27.0785 49.0426 26.809C49.0816 26.5394 49.0035 26.266 48.8316 26.0551C47.7222 24.6918 46.4488 23.9926 45.0543 23.9731C45.0387 23.9731 42.8473 24.0082 40.9527 25.9809C40.7535 26.1918 40.6832 26.4926 40.7301 26.7777C40.7769 27.0629 40.9488 27.3129 41.1949 27.4613C41.7105 27.7699 42.2691 28.227 42.6441 28.6449C38.9605 29.0902 31.8351 30.6566 26.0741 36.1449L23.6639 33.8129C23.5819 33.684 23.2733 33.3832 23.3905 32.0707C23.5311 30.5238 23.6327 28.5941 21.7889 27.1215C20.1209 25.766 8.51586 16.6335 8.02286 16.2465C7.62052 15.9301 7.03848 15.977 6.69086 16.3559C6.34711 16.7387 6.35102 17.3169 6.70649 17.6918L14.7456 26.1371L6.15969 18.1762C5.76125 17.809 5.14409 17.8286 4.77299 18.227C4.4058 18.6254 4.42924 19.2426 4.82768 19.6137L13.5465 27.6957L13.3355 27.8754L4.35504 19.7348C3.9527 19.3715 3.33164 19.3988 2.97224 19.8051C2.61677 20.2035 2.64802 20.8246 3.05036 21.1879L11.527 28.8754L2.39806 21.7426C1.99572 21.4262 1.35116 21.2738 0.937162 21.809C0.538722 22.3363 0.667632 22.8363 1.0231 23.2074C1.26529 23.4574 11.2731 33.9804 12.8121 35.4454C14.898 37.4376 18.1012 36.5079 19.0152 36.6173C19.0191 36.6173 20.2613 36.9845 20.3121 37.0275L22.9918 39.7306C20.2965 43.5236 18.6012 48.1681 17.9449 53.5586L1.9609 53.5547C0.8828 53.5547 0 54.4336 0 55.5156V56.9297C0 58.0117 0.87891 58.8906 1.9609 58.8906H9.1367C10.7187 59.7187 13.9961 61.3828 14.9492 61.4687C15.0898 61.4843 36.4102 61.5077 40.1052 61.5077L32.0974 70.0155C31.9372 70.1601 30.5505 71.4764 30.5193 73.203C30.5037 74.1132 30.8787 74.9686 31.6013 75.6796C32.4177 76.4765 33.2927 76.8827 34.2029 76.8827C35.9256 76.8827 37.1482 75.4257 37.7341 74.7265C37.7341 74.7265 42.3279 69.1874 46.8005 63.7535L57.8705 74.9215C59.5658 76.6676 61.3939 76.484 61.4174 76.484C62.3549 76.4645 63.2221 76.0621 63.9213 75.3238C64.6166 74.5894 64.9565 73.7144 64.9057 72.8004C64.808 71.027 63.3119 69.7106 63.1557 69.5777L53.9682 61.5074C65.8002 61.484 75.7342 61.4684 75.7342 61.4684C75.8865 61.4684 81.0428 58.8903 81.0428 58.8903H88.2069C89.285 58.8903 90.1678 58.0113 90.1678 56.9294V55.5153C90.1678 54.4333 89.2889 53.5544 88.2108 53.5544L88.2099 53.5551ZM70.3389 53.5551H55.1279C56.8388 50.9379 61.3349 47.5004 61.5263 47.3559C61.7607 47.1763 62.1708 46.7309 61.8544 46.1918L63.7802 47.8793C63.7802 47.8793 65.788 45.7699 67.4755 43.8871C69.6044 47.9379 70.1826 51.8051 70.3389 53.5551ZM83.2529 17.8211C80.4951 26.6727 66.7919 41.7781 63.6479 45.1611L59.5581 41.5752C64.4526 34.54 78.0189 22.3991 83.2529 17.8211ZM43.2799 26.5477C44.0416 25.9462 45.0221 25.9384 45.0299 25.9384C45.5651 25.9462 46.0885 26.1571 46.6002 26.5712C45.9322 27.1415 45.3424 27.8017 45.1236 28.4774C45.1119 28.4774 44.9674 28.4735 44.8385 28.4774C44.522 27.7039 43.8698 27.0321 43.2799 26.5477ZM45.0494 30.4305C51.6119 31.0946 57.0334 33.1024 61.1974 36.3719C59.6583 38.1375 56.4122 42.3758 56.2755 42.6258C52.8966 48.782 47.5841 53.5558 47.5841 53.5558H44.9318L35.5021 45.2706L27.4865 37.5128C34.6349 30.7667 44.3154 30.4461 45.0494 30.4305ZM14.2094 34.0711C13.811 33.6883 12.8227 32.6453 11.5571 31.3328C11.8891 31.4618 12.2759 31.4032 12.5571 31.161C12.5571 31.161 17.1118 27.2001 17.1157 27.1922C17.2017 27.114 17.7251 26.6961 17.3345 26.075C18.8814 27.2977 20.1118 28.2781 20.5689 28.6453C21.4829 29.3757 21.5454 30.2195 21.4673 31.5594C21.0962 33.786 22.272 35.1805 22.2876 35.1961C22.2915 35.2 22.2954 35.2039 22.2954 35.2117L34.1704 46.7037L45.0374 56.2545L43.6233 57.7584L21.6463 35.5864C21.6385 35.5786 21.6229 35.5747 21.6151 35.5669C21.6073 35.559 21.6073 35.5512 21.5995 35.5512C21.4901 35.4575 20.6698 34.7856 19.1347 34.6645C19.1268 34.6645 15.5297 35.3446 14.2094 34.0711ZM24.3974 41.1414L36.7024 53.5514L19.9054 53.5554C20.5226 48.7195 22.038 44.5632 24.3974 41.1414ZM1.95942 55.5164H38.6394L40.0456 56.9305H1.95962L1.95942 55.5164ZM15.1434 59.5164C14.9208 59.4813 14.327 59.2352 13.5653 58.8914H41.9873L42.2842 59.1883L41.9483 59.5438C20.4603 59.5555 15.4914 59.536 15.1434 59.5164ZM36.2334 73.4574C35.8037 73.9692 35.0107 74.9144 34.2022 74.9144C33.8233 74.9144 33.4053 74.6996 32.9678 74.2738C32.6319 73.9457 32.4717 73.6098 32.4756 73.2386C32.4834 72.4886 33.1592 71.6995 33.4678 71.4105L52.5538 51.1335C52.6202 51.0632 54.1241 49.5007 57.3038 44.6452L59.4054 46.5046C58.1163 47.5202 55.839 49.4304 54.4366 51.2624C53.3975 52.6179 36.2334 73.4574 36.2334 73.4574ZM62.4994 73.9692C61.3353 75.3754 59.5385 73.7973 59.2572 73.5239L48.0542 62.2269C48.5894 61.5745 49.1167 60.9339 49.6362 60.2972L61.8702 71.0472C62.1593 71.2972 63.4877 72.7739 62.4994 73.9692ZM75.4954 59.5082C73.8235 59.5121 63.4404 59.5238 51.7374 59.5355L50.9991 58.8871H76.7101L75.4954 59.5082ZM88.2104 56.9301H52.3944C52.8007 56.4301 53.1874 55.9574 53.5467 55.516H88.2107L88.2104 56.9301Z" fill="white"/>
</svg>
