<svg width="70" height="80" viewBox="0 0 70 80" fill="none" xmlns="http://www.w3.org/2000/svg">
<path fill-rule="evenodd" clip-rule="evenodd" d="M0.00960064 37.7582H18.4236L23.0798 33.559C23.2048 33.4458 23.365 33.3872 23.5251 33.3872H30.7126L28.6735 30.9731H13.0285L9.23161 34.7192C9.09489 34.852 8.91911 34.9145 8.74333 34.9106L0.00503063 34.9926V37.7582L0.00960064 37.7582ZM59.7676 21.0822C58.8496 21.0822 58.0176 21.4533 57.416 22.0549C56.9629 22.508 56.6426 23.0901 56.5098 23.7424H36.0177C35.8693 23.7424 35.717 23.7932 35.592 23.8986L28.7404 29.6486H12.7604C12.5612 29.6486 12.3815 29.7385 12.2604 29.8752L8.49477 33.59L0.00647068 33.6681V29.5587H6.91667C7.08855 29.5587 7.26433 29.4884 7.39323 29.3556L14.1315 22.3595H29.1085C29.2804 22.3595 29.4484 22.2931 29.5773 22.1642L34.1828 17.5587H45.3708C45.5036 18.211 45.8239 18.7931 46.277 19.2462C46.8786 19.8478 47.7106 20.2189 48.6286 20.2189C49.5466 20.2189 50.3786 19.8478 50.9802 19.2462C51.5818 18.6446 51.9529 17.8126 51.9529 16.8946C51.9529 15.9766 51.5818 15.1446 50.9802 14.543C50.3787 13.9414 49.5466 13.5703 48.6286 13.5703C47.7107 13.5703 46.8786 13.9414 46.277 14.543C45.8239 14.9961 45.5036 15.5782 45.3708 16.2305H33.9098C33.7262 16.2305 33.5582 16.3047 33.4371 16.4297L28.8355 21.0313H13.8515C13.6445 21.0313 13.4609 21.1251 13.3398 21.2696L6.6328 28.2305H9.53674e-07V19.961L34.578 0L51.867 9.9805L51.9061 10L69.1561 19.9609V59.8949L34.5781 79.8559L17.2891 69.8754L17.25 69.8559L0 59.895V48.84H6.7852L13.2891 57.8166C13.4063 58.0002 13.6133 58.1213 13.8477 58.1213H28.7777L33.3402 64.1877C33.4574 64.3752 33.6644 64.5002 33.9027 64.5002H45.5587C45.6798 64.9768 45.9298 65.4025 46.2657 65.7424C46.754 66.2307 47.4259 66.5314 48.1719 66.5314C48.918 66.5314 49.5899 66.2307 50.0781 65.7424C50.5664 65.2541 50.8672 64.5822 50.8672 63.8362C50.8672 63.094 50.5664 62.4182 50.0781 61.93C49.5898 61.4417 48.9179 61.1409 48.1719 61.1409C47.4297 61.1409 46.7539 61.4417 46.2657 61.93C45.9298 62.2659 45.6798 62.6956 45.5587 63.1722H34.2307L30.4299 58.1214H52.3749C52.496 58.5979 52.746 59.0237 53.0819 59.3636C53.5702 59.8519 54.2421 60.1527 54.9881 60.1527C55.7342 60.1527 56.4061 59.8519 56.8943 59.3636C57.3826 58.8753 57.6834 58.2034 57.6834 57.4574C57.6834 56.7152 57.3826 56.0394 56.8943 55.5512C56.406 55.0629 55.7341 54.7621 54.9881 54.7621C54.2459 54.7621 53.5701 55.0629 53.0819 55.5512C52.746 55.8871 52.496 56.3168 52.3749 56.7934L14.1989 56.7895L7.67159 47.7817C7.54268 47.602 7.33956 47.5082 7.13253 47.5082H0.00752926V43.7387H13.5935L17.8513 48.4653C17.9841 48.6099 18.1638 48.6841 18.3435 48.6841H30.9955L33.9096 51.5982C34.0385 51.7271 34.2104 51.7935 34.3784 51.7935H56.7734C56.9062 52.4458 57.2265 53.0279 57.6796 53.481C58.2812 54.0826 59.1132 54.4537 60.0312 54.4537C60.9492 54.4537 61.7812 54.0826 62.3828 53.481C62.9844 52.8794 63.3555 52.0474 63.3555 51.1294C63.3555 50.2114 62.9844 49.3794 62.3828 48.7778C61.7813 48.1762 60.9492 47.8051 60.0312 47.8051C59.1132 47.8051 58.2812 48.1762 57.6796 48.7778C57.2265 49.2309 56.9062 49.813 56.7734 50.4653H34.6564L31.7462 47.5551C31.6251 47.434 31.4571 47.3559 31.2735 47.3559H18.6365L14.4021 42.6567C14.281 42.5082 14.0935 42.4106 13.8865 42.4106H0.00749016V39.0864H18.4025L23.0548 43.7778C23.1837 43.9067 23.3556 43.9731 23.5235 43.9731H46.8245C46.9456 44.4497 47.1956 44.8754 47.5316 45.2153C48.0199 45.7036 48.6918 46.0044 49.4378 46.0044C50.1838 46.0044 50.8558 45.7036 51.344 45.2153C51.8323 44.727 52.133 44.0551 52.133 43.3091C52.133 42.5669 51.8323 41.8911 51.344 41.4029C50.8557 40.9146 50.1838 40.6138 49.4378 40.6138C48.6956 40.6138 48.0198 40.9146 47.5316 41.4029C47.1956 41.7388 46.9456 42.1685 46.8245 42.6451H23.8015L19.6413 38.4459L23.7819 34.7115H31.8366L35.3718 38.899C35.4929 39.0631 35.6883 39.1685 35.907 39.1685H56.098C56.2308 39.8209 56.5511 40.4029 57.0042 40.856C57.6058 41.4576 58.4379 41.8287 59.3559 41.8287C60.2739 41.8287 61.1059 41.4576 61.7075 40.856C62.309 40.2545 62.6801 39.4224 62.6801 38.5044C62.6801 37.5864 62.309 36.7544 61.7075 36.1528C61.1059 35.5513 60.2739 35.1802 59.3559 35.1802C58.4379 35.1802 57.6058 35.5513 57.0042 36.1528C56.5511 36.606 56.2308 37.188 56.098 37.8403H36.211L33.5704 34.7114H40.3243C40.5899 34.7114 40.8165 34.5591 40.922 34.3364L42.7579 31.313H48.9649C49.0859 31.7896 49.336 32.2154 49.6719 32.5552C50.1602 33.0435 50.8321 33.3443 51.5781 33.3443C52.3203 33.3443 52.9961 33.0435 53.4843 32.5552C53.9726 32.067 54.2733 31.395 54.2733 30.649C54.2733 29.903 53.9726 29.231 53.4843 28.7428C52.996 28.2546 52.3241 27.9538 51.5781 27.9538C50.8359 27.9538 50.1601 28.2546 49.6719 28.7428C49.336 29.0788 49.0859 29.5085 48.9649 29.985H42.3868C42.1641 29.985 41.9454 30.0983 41.8204 30.3053L39.9531 33.3834H32.4454L29.9142 30.3873L36.2539 25.067H56.504C56.6368 25.7194 56.9571 26.3014 57.4102 26.7545C58.0118 27.3561 58.8438 27.7272 59.7618 27.7272C60.6798 27.7272 61.5118 27.3561 62.1134 26.7545C62.715 26.153 63.0861 25.3209 63.0861 24.4029C63.0861 23.485 62.715 22.6529 62.1134 22.0513C61.5118 21.4498 60.6798 21.0787 59.7618 21.0787L59.7676 21.0822Z" fill="white"/>
</svg>
