<svg width="108" height="26" viewBox="0 0 108 26" fill="none" xmlns="http://www.w3.org/2000/svg">
<path d="M36.1378 19V5.90909H38.9055V11.6811H39.0781L43.7891 5.90909H47.1065L42.2486 11.7706L47.1641 19H43.853L40.267 13.6179L38.9055 15.2798V19H36.1378ZM49.112 19V9.18182H51.835V19H49.112ZM50.4799 7.91619C50.0751 7.91619 49.7278 7.78196 49.438 7.51349C49.1525 7.24077 49.0098 6.91477 49.0098 6.53551C49.0098 6.16051 49.1525 5.83878 49.438 5.57031C49.7278 5.29758 50.0751 5.16122 50.4799 5.16122C50.8848 5.16122 51.2299 5.29758 51.5154 5.57031C51.8052 5.83878 51.9501 6.16051 51.9501 6.53551C51.9501 6.91477 51.8052 7.24077 51.5154 7.51349C51.2299 7.78196 50.8848 7.91619 50.4799 7.91619ZM59.2386 9.18182V11.2273H53.326V9.18182H59.2386ZM54.6683 6.82955H57.3913V15.983C57.3913 16.2344 57.4297 16.4304 57.5064 16.571C57.5831 16.7074 57.6896 16.8033 57.826 16.8587C57.9666 16.9141 58.1286 16.9418 58.3118 16.9418C58.4396 16.9418 58.5675 16.9311 58.6953 16.9098C58.8232 16.8842 58.9212 16.8651 58.9893 16.8523L59.4176 18.8786C59.2813 18.9212 59.0895 18.9702 58.8423 19.0256C58.5952 19.0852 58.2947 19.1214 57.9411 19.1342C57.2848 19.1598 56.7095 19.0724 56.2152 18.8722C55.7251 18.6719 55.3438 18.3608 55.071 17.9389C54.7983 17.517 54.6641 16.9844 54.6683 16.3409V6.82955ZM63.9464 5.90909V19H61.2234V5.90909H63.9464ZM68.9274 19.1854C68.301 19.1854 67.7427 19.0767 67.2527 18.8594C66.7626 18.6378 66.3748 18.3118 66.0893 17.8814C65.8081 17.4467 65.6674 16.9055 65.6674 16.2578C65.6674 15.7124 65.7676 15.2543 65.9679 14.8835C66.1681 14.5128 66.4409 14.2145 66.786 13.9886C67.1312 13.7628 67.5233 13.5923 67.9622 13.4773C68.4054 13.3622 68.8699 13.2812 69.3556 13.2344C69.9267 13.1747 70.3869 13.1193 70.7363 13.0682C71.0858 13.0128 71.3393 12.9318 71.497 12.8253C71.6547 12.7187 71.7335 12.5611 71.7335 12.3523V12.3139C71.7335 11.9091 71.6056 11.5959 71.35 11.3743C71.0985 11.1527 70.7406 11.0419 70.2761 11.0419C69.786 11.0419 69.3961 11.1506 69.1064 11.3679C68.8166 11.581 68.6248 11.8494 68.5311 12.1733L66.0126 11.9688C66.1404 11.3722 66.3919 10.8565 66.7669 10.4219C67.1419 9.98295 67.6255 9.64631 68.2179 9.41193C68.8145 9.1733 69.5048 9.05398 70.2889 9.05398C70.8343 9.05398 71.3564 9.1179 71.8549 9.24574C72.3578 9.37358 72.8031 9.57173 73.1909 9.8402C73.5829 10.1087 73.8919 10.4538 74.1177 10.8757C74.3436 11.2933 74.4565 11.794 74.4565 12.3778V19H71.8741V17.6385H71.7974C71.6397 17.9453 71.4288 18.2159 71.1646 18.4503C70.9004 18.6804 70.5829 18.8615 70.2122 18.9936C69.8414 19.1214 69.4132 19.1854 68.9274 19.1854ZM69.7072 17.3061C70.1078 17.3061 70.4615 17.2273 70.7683 17.0696C71.0751 16.9077 71.3159 16.6903 71.4906 16.4176C71.6653 16.1449 71.7527 15.8359 71.7527 15.4908V14.4489C71.6674 14.5043 71.5502 14.5554 71.4011 14.6023C71.2562 14.6449 71.0922 14.6854 70.9089 14.7237C70.7257 14.7578 70.5424 14.7898 70.3592 14.8196C70.176 14.8452 70.0098 14.8686 69.8606 14.8899C69.541 14.9368 69.2619 15.0114 69.0233 15.1136C68.7846 15.2159 68.5993 15.3544 68.4672 15.5291C68.335 15.6996 68.269 15.9126 68.269 16.1683C68.269 16.5391 68.4032 16.8224 68.6717 17.0185C68.9444 17.2102 69.2896 17.3061 69.7072 17.3061ZM77.8986 22.6818C77.5534 22.6818 77.2296 22.6541 76.927 22.5987C76.6287 22.5476 76.3816 22.4815 76.1855 22.4006L76.7992 20.3679C77.1188 20.4659 77.4064 20.5192 77.6621 20.5277C77.9221 20.5362 78.1458 20.4766 78.3333 20.3487C78.525 20.2209 78.6806 20.0036 78.7999 19.6967L78.9597 19.2812L75.4377 9.18182H78.3013L80.334 16.392H80.4363L82.4881 9.18182H85.3709L81.5549 20.0611C81.3716 20.5895 81.1223 21.0497 80.807 21.4418C80.4959 21.8381 80.1017 22.1428 79.6245 22.3558C79.1472 22.5732 78.5719 22.6818 77.8986 22.6818ZM90.9224 19.1918C89.9125 19.1918 89.0431 18.9872 88.3145 18.5781C87.59 18.1648 87.0318 17.581 86.6397 16.8267C86.2477 16.0682 86.0517 15.1712 86.0517 14.1357C86.0517 13.1257 86.2477 12.2393 86.6397 11.4766C87.0318 10.7138 87.5836 10.1193 88.2953 9.69318C89.0112 9.26705 89.8507 9.05398 90.8137 9.05398C91.4615 9.05398 92.0645 9.15838 92.6227 9.36719C93.1852 9.57173 93.6752 9.88068 94.0929 10.294C94.5147 10.7074 94.8429 11.2273 95.0772 11.8537C95.3116 12.4759 95.4288 13.2045 95.4288 14.0398V14.7876H87.1383V13.1001H92.8656C92.8656 12.7081 92.7804 12.3608 92.6099 12.0582C92.4395 11.7557 92.2029 11.5192 91.9004 11.3487C91.6021 11.174 91.2548 11.0866 90.8585 11.0866C90.4451 11.0866 90.0787 11.1825 89.7591 11.3743C89.4437 11.5618 89.1966 11.8153 89.0176 12.1349C88.8386 12.4503 88.747 12.8018 88.7427 13.1896V14.794C88.7427 15.2798 88.8322 15.6996 89.0112 16.0533C89.1944 16.407 89.4522 16.6797 89.7846 16.8714C90.117 17.0632 90.5112 17.1591 90.9672 17.1591C91.2697 17.1591 91.5467 17.1165 91.7981 17.0312C92.0495 16.946 92.2647 16.8182 92.4437 16.6477C92.6227 16.4773 92.7591 16.2685 92.8528 16.0213L95.3713 16.1875C95.2434 16.7926 94.9814 17.321 94.5851 17.7727C94.193 18.2202 93.6859 18.5696 93.0637 18.821C92.4458 19.0682 91.7321 19.1918 90.9224 19.1918ZM97.2058 19V9.18182H99.8457V10.8949H99.948C100.127 10.2855 100.427 9.82528 100.849 9.5142C101.271 9.19886 101.757 9.04119 102.307 9.04119C102.443 9.04119 102.59 9.04972 102.748 9.06676C102.905 9.08381 103.044 9.10724 103.163 9.13707V11.5533C103.035 11.5149 102.858 11.4808 102.633 11.451C102.407 11.4212 102.2 11.4062 102.013 11.4062C101.612 11.4062 101.254 11.4936 100.939 11.6683C100.628 11.8388 100.381 12.0774 100.197 12.3842C100.018 12.6911 99.9288 13.0447 99.9288 13.4453V19H97.2058ZM105.038 19.1662C104.616 19.1662 104.254 19.017 103.951 18.7188C103.653 18.4162 103.504 18.054 103.504 17.6321C103.504 17.2145 103.653 16.8565 103.951 16.5582C104.254 16.2599 104.616 16.1108 105.038 16.1108C105.447 16.1108 105.805 16.2599 106.112 16.5582C106.418 16.8565 106.572 17.2145 106.572 17.6321C106.572 17.9134 106.499 18.1712 106.354 18.4055C106.214 18.6357 106.028 18.821 105.798 18.9616C105.568 19.098 105.315 19.1662 105.038 19.1662Z" fill="black"/>
<g clip-path="url(#clip0_3_540)">
<path d="M2.05 8.46856C1.08333 8.10537 0.499998 7.48632 0.299998 6.61142C0.099998 5.73649 0.216665 4.96887 0.649998 4.30856C1.11667 3.63173 1.75833 3.21078 2.575 3.0457C3.39167 2.86411 4.15 3.07047 4.85 3.66475C5.71667 4.35808 6.55831 5.15047 7.375 6.04189C8.19169 6.91679 9.00831 7.67618 9.825 8.31999C10.2083 8.6006 10.5583 8.66666 10.875 8.51808C11.1917 8.35298 11.3667 8.02285 11.4 7.52761C11.4167 6.80128 11.3833 6.05015 11.3 5.27427C11.2333 4.4984 11.2083 3.73078 11.225 2.97142C11.2583 1.94793 11.6333 1.19681 12.35 0.718084C13.0833 0.239352 14.0167 0.132051 15.15 0.396178C16.2667 0.643799 17.0083 1.22983 17.375 2.15427C17.7417 3.07872 17.6583 4.01142 17.125 4.95237C16.7583 5.56316 16.3 6.1987 15.75 6.85904C15.2 7.51937 14.725 8.22094 14.325 8.9638C14.175 9.21142 14.175 9.43427 14.325 9.63237C14.475 9.81394 14.7333 9.88822 15.1 9.85523C16.0833 9.70666 17.0333 9.49203 17.95 9.21142C18.8833 8.9308 19.875 8.71618 20.925 8.56761C22.075 8.38604 23.0083 8.54285 23.725 9.03808C24.4417 9.53332 24.8 10.3009 24.8 11.3409C24.8 12.4139 24.4333 13.1899 23.7 13.6686C22.9833 14.1473 22.0167 14.2794 20.8 14.0647C19.8167 13.8832 18.8417 13.6356 17.875 13.3219C16.925 12.9918 15.9 12.7276 14.8 12.5295C14.4167 12.4305 14.175 12.4882 14.075 12.7028C13.975 12.9009 14 13.1733 14.15 13.52C14.7667 14.9067 15.4333 16.1943 16.15 17.3828C16.8833 18.5714 17.5583 19.7765 18.175 20.9981C18.725 22.0546 18.8083 22.9625 18.425 23.7219C18.0417 24.4813 17.3833 25.0095 16.45 25.3067C15.4333 25.6038 14.575 25.513 13.875 25.0343C13.1917 24.5556 12.7417 23.7219 12.525 22.5333C12.325 21.2457 12.175 19.9333 12.075 18.5962C11.975 17.259 11.8333 15.8476 11.65 14.3619C11.5833 13.9822 11.4333 13.7511 11.2 13.6686C10.9667 13.5695 10.7333 13.652 10.5 13.9162C9.63331 14.7086 8.86669 15.4844 8.2 16.2438C7.53331 16.9867 6.78331 17.7295 5.95 18.4724C5.16667 19.1657 4.40833 19.5041 3.675 19.4876C2.94167 19.4711 2.325 19.1162 1.825 18.4228C1.40833 17.7956 1.25833 17.0775 1.375 16.2686C1.50833 15.4597 2.01667 14.8241 2.9 14.3619C3.91667 13.8337 4.90833 13.3962 5.875 13.0495C6.84169 12.6863 7.78331 12.2324 8.7 11.6876C8.96669 11.5225 9.06669 11.3244 9 11.0933C8.93331 10.8622 8.73331 10.6641 8.4 10.499C7.43331 10.0533 6.35 9.69013 5.15 9.40951C3.96667 9.1289 2.93333 8.81523 2.05 8.46856Z" fill="#030712"/>
</g>
<defs>
<clipPath id="clip0_3_540">
<rect width="25" height="26" fill="white"/>
</clipPath>
</defs>
</svg>
