<svg width="80" height="80" viewBox="0 0 80 80" fill="none" xmlns="http://www.w3.org/2000/svg">
<rect width="80" height="80" rx="12" fill="#DEFF37"/>
<path d="M20.018 31.6114C18.1234 30.899 16.98 29.6847 16.588 27.9686C16.196 26.2524 16.4247 24.7467 17.274 23.4514C18.1887 22.1238 19.4464 21.2981 21.047 20.9743C22.6477 20.6181 24.134 21.0229 25.506 22.1886C27.2047 23.5486 28.8543 25.1029 30.455 26.8514C32.0557 28.5676 33.6563 30.0571 35.257 31.32C36.0083 31.8704 36.6943 32 37.315 31.7086C37.9357 31.3847 38.2787 30.7371 38.344 29.7657C38.3767 28.341 38.3113 26.8676 38.148 25.3457C38.0173 23.8238 37.9683 22.3181 38.001 20.8286C38.0663 18.821 38.8013 17.3476 40.206 16.4086C41.6433 15.4695 43.4727 15.259 45.694 15.7771C47.8827 16.2629 49.3363 17.4124 50.055 19.2257C50.7737 21.039 50.6103 22.8686 49.565 24.7143C48.8463 25.9124 47.948 27.159 46.87 28.4543C45.792 29.7496 44.861 31.1257 44.077 32.5829C43.783 33.0686 43.783 33.5057 44.077 33.8943C44.371 34.2504 44.8773 34.3962 45.596 34.3314C47.5233 34.04 49.3853 33.619 51.182 33.0686C53.0113 32.5181 54.955 32.0971 57.013 31.8057C59.267 31.4496 61.0963 31.7571 62.501 32.7286C63.9057 33.7 64.608 35.2057 64.608 37.2457C64.608 39.3504 63.8893 40.8724 62.452 41.8114C61.0473 42.7504 59.1527 43.0096 56.768 42.5886C54.8407 42.2324 52.9297 41.7467 51.035 41.1314C49.173 40.4839 47.164 39.9657 45.008 39.5771C44.2567 39.3829 43.783 39.4962 43.587 39.9171C43.391 40.3057 43.44 40.84 43.734 41.52C44.9427 44.24 46.2493 46.7657 47.654 49.0971C49.0913 51.4286 50.4143 53.7924 51.623 56.1886C52.701 58.261 52.8643 60.0419 52.113 61.5314C51.3617 63.021 50.0713 64.0571 48.242 64.64C46.2493 65.2229 44.567 65.0447 43.195 64.1057C41.8557 63.1667 40.9737 61.5314 40.549 59.2C40.157 56.6743 39.863 54.1 39.667 51.4771C39.471 48.8543 39.1933 46.0857 38.834 43.1714C38.7033 42.4267 38.4093 41.9733 37.952 41.8114C37.4947 41.6171 37.0373 41.779 36.58 42.2971C34.8813 43.8514 33.3787 45.3733 32.072 46.8629C30.7653 48.32 29.2953 49.7771 27.662 51.2343C26.1267 52.5943 24.6404 53.2581 23.203 53.2257C21.7657 53.1933 20.557 52.4971 19.577 51.1371C18.7604 49.9067 18.4664 48.4981 18.695 46.9114C18.9564 45.3247 19.9527 44.0781 21.684 43.1714C23.6767 42.1353 25.6204 41.2771 27.515 40.5971C29.4097 39.8847 31.2553 38.9943 33.052 37.9257C33.5747 37.6019 33.7707 37.2133 33.64 36.76C33.5093 36.3067 33.1173 35.9181 32.464 35.5943C30.5693 34.72 28.446 34.0076 26.094 33.4571C23.7747 32.9067 21.7494 32.2914 20.018 31.6114Z" fill="black"/>
</svg>
