<svg width="80" height="69" viewBox="0 0 80 69" fill="none" xmlns="http://www.w3.org/2000/svg">
<path fill-rule="evenodd" clip-rule="evenodd" d="M48.9927 10.9974L53.8169 6.17323L61.188 13.5404L56.3599 18.3685C56.6607 18.8138 56.9497 19.267 57.2271 19.724C55.4966 19.474 53.6412 19.3334 51.7154 19.3334C47.8795 19.3334 44.3326 19.8803 41.4534 20.8022C39.1878 19.4311 36.5276 18.642 33.6839 18.642C25.3831 18.642 18.6489 25.3764 18.6489 33.677C18.6489 41.9778 25.3833 48.708 33.6839 48.708C33.8792 48.708 34.0745 48.7041 34.2659 48.7002V63.1062C34.2659 64.946 35.4261 66.3367 36.8948 67.3679H28.469V60.5437C24.7893 59.8289 21.3713 58.3875 18.375 56.3562L13.5469 61.1843L6.1797 53.8132L11.0039 48.989C8.9805 45.9929 7.5312 42.571 6.8242 38.891H0V28.469H6.8242C7.53123 24.7893 8.9804 21.3713 11.0039 18.375L6.1797 13.5469L13.5469 6.1797L18.375 11.0039C21.3711 8.9805 24.7891 7.5312 28.469 6.8242V0H38.891V6.8242C42.5707 7.53123 45.9926 8.9804 48.989 11.0039L48.9927 10.9974ZM64.3447 36.0594C72.9892 36.0594 79.9967 43.0672 79.9967 51.7114C79.9967 60.3556 72.9889 67.3674 64.3447 67.3674C55.7002 67.3674 48.6887 60.3557 48.6887 51.7114C48.6887 43.0671 55.7004 36.0594 64.3447 36.0594ZM63.3603 42.2586C63.3603 41.7157 63.8017 41.2782 64.3408 41.2782C64.8837 41.2782 65.3173 41.7196 65.3173 42.2586V43.8875H69.8954C70.4384 43.8875 70.8759 44.3289 70.8759 44.868C70.8759 45.411 70.4345 45.8446 69.8954 45.8446H62.2001C61.5283 45.8446 60.9189 46.1219 60.4774 46.5633C60.0321 47.0086 59.7587 47.618 59.7587 48.286C59.7587 48.9579 60.0321 49.5672 60.4774 50.0087C60.9188 50.454 61.5282 50.7275 62.2001 50.7275H66.4735C67.6883 50.7275 68.7899 51.2236 69.5868 52.0244C70.3837 52.8212 70.8798 53.9189 70.8798 55.1299C70.8798 56.3447 70.3837 57.4424 69.5868 58.2354C68.79 59.0322 67.6884 59.5284 66.4735 59.5284H65.3173V61.1573C65.3173 61.7002 64.8837 62.1377 64.3408 62.1377C63.7978 62.1377 63.3603 61.6963 63.3603 61.1573V59.5284H58.7822C58.2392 59.5284 57.8017 59.0948 57.8017 58.5518C57.8017 58.0088 58.2431 57.5713 58.7822 57.5713H66.4775C67.1494 57.5713 67.7587 57.2979 68.2041 56.8526C68.6455 56.4073 68.9229 55.8018 68.9229 55.1299C68.9229 54.458 68.6455 53.8487 68.2041 53.4072C67.7588 52.9619 67.1494 52.6884 66.4775 52.6884H62.2041C60.9893 52.6884 59.8916 52.1923 59.0908 51.3954C58.2939 50.5986 57.7978 49.497 57.7978 48.2821C57.7978 47.0673 58.2939 45.9696 59.0908 45.1766C59.8916 44.3798 60.9892 43.8836 62.2041 43.8836H63.3603V42.2547V42.2586ZM51.7153 21.1336C60.3598 21.1336 67.3713 23.7742 67.3713 27.0242C67.3713 30.2742 60.3596 32.9148 51.7153 32.9148C43.071 32.9148 36.0633 30.2781 36.0633 27.0242C36.0633 23.7703 43.0711 21.1336 51.7153 21.1336ZM67.3713 34.5206V30.4268C64.5197 32.9659 58.5822 34.708 51.7153 34.708C44.8484 34.708 38.9103 32.9619 36.0633 30.4268V40.1963C38.4578 42.333 43.036 43.9111 48.5083 44.3525C51.2856 38.3916 57.3286 34.2585 64.3403 34.2585C65.3715 34.2585 66.3833 34.3484 67.3676 34.5163L67.3713 34.5206ZM36.0663 42.1808V51.9542C38.2968 53.9464 42.4335 55.4503 47.4253 56.005C47.0776 54.63 46.8941 53.1886 46.8941 51.7081C46.8941 49.8097 47.1987 47.9815 47.7612 46.2667C42.6206 45.7433 38.351 44.2159 36.0702 42.1769L36.0663 42.1808ZM36.0663 53.9348V63.1028C36.0663 66.3567 43.0741 68.9934 51.7183 68.9934C54.3433 68.9934 56.8199 68.7512 58.9917 68.3215C53.9956 66.716 49.98 62.9153 48.0817 58.0555C42.8005 57.5595 38.3948 56.0129 36.0663 53.9348Z" fill="white"/>
</svg>
