<svg width="247" height="51" viewBox="0 0 247 51" fill="none" xmlns="http://www.w3.org/2000/svg">
<g clip-path="url(#clip0_133_653)">
<path d="M3.44401 14.6571C1.82 14.0285 0.840006 12.9571 0.504006 11.4429C0.168006 9.92856 0.364007 8.59999 1.09201 7.45714C1.87601 6.2857 2.954 5.55713 4.32601 5.27142C5.69801 4.95713 6.97201 5.31428 8.14801 6.34285C9.60401 7.54285 11.018 8.91428 12.39 10.4571C13.762 11.9714 15.134 13.2857 16.506 14.4C17.15 14.8857 17.738 15 18.27 14.7429C18.802 14.4571 19.096 13.8857 19.152 13.0286C19.18 11.7715 19.124 10.4714 18.984 9.12856C18.872 7.7857 18.83 6.45713 18.858 5.14285C18.914 3.37143 19.544 2.07142 20.748 1.24285C21.98 0.414275 23.548 0.228561 25.452 0.685704C27.328 1.11428 28.574 2.12856 29.19 3.72856C29.806 5.32856 29.666 6.94285 28.77 8.57142C28.154 9.62856 27.384 10.7285 26.46 11.8714C25.536 13.0143 24.738 14.2286 24.066 15.5143C23.814 15.9428 23.814 16.3286 24.066 16.6714C24.318 16.9857 24.752 17.1142 25.368 17.0571C27.02 16.8 28.616 16.4285 30.156 15.9428C31.724 15.4572 33.39 15.0857 35.154 14.8286C37.086 14.5143 38.654 14.7857 39.858 15.6429C41.062 16.5 41.664 17.8286 41.664 19.6286C41.664 21.4857 41.048 22.8286 39.816 23.6571C38.612 24.4857 36.988 24.7143 34.944 24.3428C33.292 24.0286 31.654 23.6 30.03 23.0571C28.434 22.4857 26.712 22.0286 24.864 21.6857C24.22 21.5143 23.814 21.6142 23.646 21.9857C23.478 22.3286 23.52 22.8 23.772 23.4C24.808 25.8 25.928 28.0286 27.132 30.0857C28.364 32.1428 29.498 34.2286 30.534 36.3428C31.458 38.1715 31.598 39.7428 30.954 41.0571C30.31 42.3715 29.204 43.2857 27.636 43.8C25.928 44.3143 24.486 44.1571 23.31 43.3286C22.162 42.5 21.406 41.0571 21.042 39C20.706 36.7714 20.454 34.5 20.286 32.1857C20.118 29.8714 19.88 27.4286 19.572 24.8571C19.46 24.2 19.208 23.8 18.816 23.6571C18.424 23.4857 18.032 23.6285 17.64 24.0857C16.184 25.4571 14.896 26.8 13.776 28.1143C12.656 29.4 11.396 30.6857 9.99601 31.9714C8.68001 33.1714 7.406 33.7572 6.17401 33.7286C4.94201 33.7 3.90601 33.0857 3.06601 31.8857C2.366 30.8 2.114 29.5572 2.31001 28.1571C2.534 26.7571 3.38801 25.6572 4.87201 24.8571C6.58001 23.9429 8.246 23.1857 9.87001 22.5857C11.494 21.9571 13.076 21.1714 14.616 20.2286C15.064 19.9428 15.232 19.6 15.12 19.2C15.008 18.8 14.672 18.4572 14.112 18.1714C12.488 17.4 10.668 16.7714 8.65201 16.2857C6.66401 15.8 4.928 15.2571 3.44401 14.6571Z" fill="#140018"/>
</g>
<path d="M175.291 26.8418C175.291 27.8438 175.432 28.7227 175.713 29.4785C176.012 30.2168 176.407 30.8408 176.899 31.3506C177.392 31.8428 177.963 32.2119 178.613 32.458C179.281 32.7041 179.993 32.8271 180.749 32.8271C181.487 32.8271 182.182 32.6602 182.832 32.3262C183.5 31.9746 184.08 31.5176 184.572 30.9551C185.064 30.3926 185.451 29.7598 185.732 29.0566C186.014 28.3359 186.154 27.5977 186.154 26.8418V11.2324H193.405V35.9121C193.388 37.8984 193.001 39.7617 192.245 41.502C191.489 43.2422 190.452 44.7627 189.134 46.0635C187.833 47.3643 186.312 48.3926 184.572 49.1484C182.832 49.9043 180.969 50.2822 178.982 50.2822L175.291 50.2295V42.9785L179.299 43.0312C180.002 43.0312 180.679 42.917 181.329 42.6885C181.979 42.46 182.577 42.1436 183.122 41.7393C183.685 41.335 184.177 40.8516 184.599 40.2891C185.021 39.7441 185.363 39.1465 185.627 38.4961C184.836 38.8301 184.027 39.1641 183.201 39.498C182.393 39.832 181.575 39.999 180.749 39.999C179.009 39.999 177.374 39.6914 175.845 39.0762C174.315 38.4609 172.971 37.5908 171.811 36.4658C170.668 35.3232 169.763 33.9434 169.095 32.3262C168.444 30.6914 168.119 28.8633 168.119 26.8418V11.2324H175.291V26.8418ZM148.555 10.1514C149.469 10.1514 150.374 10.2656 151.271 10.4941C152.167 10.7227 153.037 11.0391 153.881 11.4434C154.725 11.8477 155.524 12.3223 156.28 12.8672C157.054 13.4121 157.774 14.001 158.442 14.6338L161.237 11.2852H162.978V39.4717H161.237L158.442 35.5957C157.757 36.2109 157.027 36.791 156.254 37.3359C155.498 37.8633 154.698 38.3291 153.854 38.7334C153.011 39.1201 152.141 39.4277 151.244 39.6562C150.365 39.8848 149.469 39.999 148.555 39.999C146.568 39.999 144.696 39.665 142.938 38.9971C141.198 38.3291 139.669 37.3623 138.351 36.0967C137.05 34.8135 136.021 33.249 135.266 31.4033C134.51 29.5576 134.132 27.457 134.132 25.1016C134.132 22.9043 134.51 20.8916 135.266 19.0635C136.021 17.2178 137.05 15.6357 138.351 14.3174C139.669 12.999 141.198 11.9795 142.938 11.2588C144.696 10.5205 146.568 10.1514 148.555 10.1514ZM211.836 10.1514C213.014 10.1514 214.165 10.292 215.29 10.5732C216.415 10.8545 217.479 11.2588 218.48 11.7861C219.5 12.3135 220.449 12.9639 221.328 13.7373C222.207 14.4932 222.98 15.3457 223.648 16.2949L210.148 32.5635C210.43 32.6514 210.711 32.7129 210.992 32.748C211.273 32.7656 211.555 32.7744 211.836 32.7744C212.539 32.7744 213.216 32.6777 213.866 32.4844C214.517 32.291 215.123 32.0186 215.686 31.667C216.266 31.2979 216.775 30.8584 217.215 30.3486C217.672 29.8213 218.041 29.2412 218.322 28.6084L223.596 33.9082C222.928 34.8574 222.154 35.71 221.275 36.4658C220.414 37.2217 219.474 37.8633 218.454 38.3906C217.452 38.918 216.389 39.3135 215.264 39.5771C214.156 39.8584 213.014 39.999 211.836 39.999C209.85 39.999 207.978 39.6299 206.22 38.8916C204.479 38.1533 202.95 37.125 201.632 35.8066C200.331 34.4883 199.303 32.9238 198.547 31.1133C197.791 29.2852 197.413 27.2812 197.413 25.1016C197.413 22.8691 197.791 20.8301 198.547 18.9844C199.303 17.1387 200.331 15.5654 201.632 14.2646C202.95 12.9639 204.479 11.9531 206.22 11.2324C207.978 10.5117 209.85 10.1514 211.836 10.1514ZM59.1699 20.5664L73.25 1.66113H81.8457L69.9014 17.6133L81.8457 39.4717H73.25L64.9443 24.1787L59.1699 31.9043V39.4717H51.6025V1.66113H59.1699V20.5664ZM88.5098 7.48828C88.6477 7.48984 88.7714 7.58793 88.8799 7.78223C89.2639 8.55729 89.6112 9.30009 89.9229 10.0098C90.2346 10.7196 90.5684 11.407 90.9229 12.0713C91.2668 12.6784 91.664 13.0491 92.1143 13.1826C92.3806 13.2582 92.6485 13.2497 92.9199 13.1631V39.4717H85.3525V12.1172C85.4698 12.1161 85.5867 12.0989 85.7031 12.0605C86.0898 11.933 86.4212 11.6075 86.6963 11.084C86.988 10.5241 87.2359 9.97908 87.4404 9.4502C87.6418 8.91239 87.8919 8.34692 88.1914 7.75391C88.2622 7.56654 88.3685 7.47778 88.5098 7.48828ZM107.896 11.2852H118.812V18.457H107.896V26.8418C107.896 27.5977 108.037 28.3096 108.318 28.9775C108.6 29.6279 108.986 30.1992 109.479 30.6914C109.971 31.1836 110.551 31.5791 111.219 31.8779C111.887 32.1592 112.599 32.2998 113.354 32.2998H118.812V39.4717H113.354C111.614 39.4717 109.979 39.1465 108.45 38.4961C106.921 37.8281 105.576 36.9229 104.416 35.7803C103.273 34.6201 102.368 33.2754 101.7 31.7461C101.05 30.2168 100.725 28.582 100.725 26.8418V18.457H97.2178V11.2852H100.725V0H107.896V11.2852ZM130.124 39.4717H122.873V0H130.124V39.4717ZM231.4 14.5811C232.561 13.5264 233.879 12.7178 235.355 12.1553C236.832 11.5752 238.361 11.2852 239.943 11.2852H246.298V18.457H239.943C239.188 18.457 238.476 18.5977 237.808 18.8789C237.14 19.1602 236.56 19.5469 236.067 20.0391C235.575 20.5312 235.188 21.1113 234.907 21.7793C234.626 22.4473 234.485 23.1592 234.485 23.915V39.4717H227.287V11.2324H229.027L231.4 14.5811ZM148.555 17.4287C147.57 17.4287 146.639 17.5957 145.76 17.9297C144.898 18.2637 144.143 18.7559 143.492 19.4062C142.859 20.0566 142.358 20.8652 141.989 21.832C141.62 22.7812 141.436 23.8711 141.436 25.1016C141.436 26.332 141.62 27.4307 141.989 28.3975C142.358 29.3467 142.859 30.1465 143.492 30.7969C144.143 31.4473 144.898 31.9395 145.76 32.2734C146.639 32.6074 147.57 32.7744 148.555 32.7744C149.539 32.7744 150.462 32.5635 151.323 32.1416C152.202 31.7021 152.967 31.1309 153.617 30.4277C154.268 29.707 154.777 28.8896 155.146 27.9756C155.533 27.0439 155.727 26.0859 155.727 25.1016C155.727 24.1172 155.533 23.168 155.146 22.2539C154.777 21.3223 154.268 20.5049 153.617 19.8018C152.967 19.0811 152.202 18.5098 151.323 18.0879C150.462 17.6484 149.539 17.4287 148.555 17.4287ZM211.836 17.4287C210.852 17.4287 209.92 17.6133 209.041 17.9824C208.18 18.334 207.424 18.8438 206.773 19.5117C206.141 20.1797 205.64 20.9883 205.271 21.9375C204.901 22.8691 204.717 23.9238 204.717 25.1016C204.717 25.3652 204.726 25.6641 204.743 25.998C204.778 26.332 204.822 26.6748 204.875 27.0264C204.945 27.3604 205.024 27.6855 205.112 28.002C205.2 28.3184 205.314 28.5996 205.455 28.8457L213.84 17.7188C213.506 17.5957 213.172 17.5166 212.838 17.4814C212.521 17.4463 212.188 17.4287 211.836 17.4287ZM92.9199 9.55566C92.5631 9.22661 92.1968 8.9039 91.8193 8.58984C91.2139 8.07582 90.615 7.49896 90.0234 6.8584C89.8777 6.69749 89.8123 6.5533 89.8262 6.42676C89.837 6.29139 89.9523 6.21469 90.1719 6.19727C90.7854 6.10035 91.3728 6.05373 91.9336 6.05664C92.2653 6.05127 92.594 6.03112 92.9199 6V9.55566ZM85.3525 6.24414C85.727 6.23557 86.0866 6.24673 86.4307 6.2832C86.6367 6.31108 86.7797 6.38183 86.8594 6.49512C86.9391 6.60859 86.9248 6.73538 86.8174 6.875C86.4437 7.34247 86.0396 7.76567 85.6045 8.14355C85.5203 8.21443 85.4364 8.28744 85.3525 8.3623V6.24414ZM86.4492 1.66113C86.5874 2.07618 86.749 2.48791 86.9336 2.89648C87.1277 3.30356 87.2907 3.70676 87.4229 4.10547C87.5015 4.38132 87.4742 4.59425 87.3408 4.74316C87.2041 4.88305 87.0078 4.91246 86.7529 4.83105C86.3008 4.66838 85.8347 4.46099 85.3525 4.21387V1.66113H86.4492ZM92.9199 2.74805C92.8173 2.79089 92.7124 2.83987 92.6064 2.89844C92.0861 3.17495 91.6085 3.47602 91.1748 3.80273C90.7499 4.12632 90.295 4.4205 89.8096 4.68457C89.6244 4.77073 89.475 4.77869 89.3613 4.70801C89.2445 4.62806 89.2011 4.50647 89.2314 4.34375C89.2965 3.8646 89.4089 3.39378 89.5684 2.93164C89.7246 2.47894 89.8386 2.05518 89.9121 1.66113H92.9199V2.74805Z" fill="#140018"/>
<defs>
<clipPath id="clip0_133_653">
<rect width="42" height="45" fill="white"/>
</clipPath>
</defs>
</svg>
